<?xml version="1.0" encoding="utf-8"?>
<!-- Generator: Adobe Illustrator 24.0.1, SVG Export Plug-In . SVG Version: 6.00 Build 0)  -->
<svg version="1.1" id="Layer_1" xmlns="http://www.w3.org/2000/svg" xmlns:xlink="http://www.w3.org/1999/xlink" x="0px" y="0px"
	 viewBox="0 0 283.43 283.43" style="enable-background:new 0 0 283.43 283.43;" xml:space="preserve">
<style type="text/css">
	.st0{fill:#FF0000;stroke:#000000;stroke-width:2;stroke-miterlimit:10;}
	.st1{fill:#FFFFFF;stroke:#000000;stroke-miterlimit:10;}
	.st2{fill:#FFFFFF;stroke:#000000;stroke-width:2;stroke-miterlimit:10;}
	.st3{fill:#39B54A;stroke:#000000;stroke-miterlimit:10;}
	.st4{fill:#FF0000;stroke:#000000;stroke-miterlimit:10;}
	.st5{fill:#FFFF00;stroke:#000000;stroke-miterlimit:10;}
	.st6{fill:#0000FF;stroke:#000000;stroke-miterlimit:10;}
	.st7{fill:#39B54A;stroke:#000000;stroke-width:2;stroke-miterlimit:10;}
	.st8{fill:#0000FF;stroke:#000000;stroke-width:2;stroke-miterlimit:10;}
	.st9{fill:#FFFF00;stroke:#000000;stroke-width:2;stroke-miterlimit:10;}
</style>
<path class="st0" d="M0,0v113.37h113.37V0H0z M94.47,94.47H18.89V18.89h75.58V94.47z"/>
<rect x="113.37" y="0" class="st1" width="18.9" height="18.9"/>
<rect x="132.27" y="0" class="st1" width="18.9" height="18.9"/>
<rect x="151.16" y="0" class="st1" width="18.9" height="18.9"/>
<rect x="170.06" y="0" class="st2" width="18.9" height="18.9"/>
<rect x="188.95" y="0" class="st2" width="18.9" height="18.9"/>
<rect x="207.85" y="0" class="st2" width="18.9" height="18.9"/>
<rect x="226.74" y="0" class="st2" width="18.9" height="18.9"/>
<rect x="245.64" y="0" class="st2" width="18.9" height="18.9"/>
<rect x="264.54" y="0" class="st2" width="18.9" height="18.9"/>
<rect x="113.37" y="18.89" class="st1" width="18.9" height="18.9"/>
<rect x="132.27" y="18.89" class="st3" width="18.9" height="18.9"/>
<rect x="151.16" y="18.89" class="st3" width="18.9" height="18.9"/>
<rect x="170.06" y="18.89" class="st2" width="18.9" height="18.9"/>
<rect x="264.54" y="18.89" class="st2" width="18.9" height="18.9"/>
<rect x="113.37" y="37.79" class="st1" width="18.9" height="18.9"/>
<rect x="132.27" y="37.79" class="st3" width="18.9" height="18.9"/>
<rect x="151.16" y="37.79" class="st1" width="18.9" height="18.9"/>
<rect x="170.06" y="37.79" class="st2" width="18.9" height="18.9"/>
<rect x="264.54" y="37.79" class="st2" width="18.9" height="18.9"/>
<rect x="113.37" y="56.68" class="st1" width="18.9" height="18.9"/>
<rect x="132.27" y="56.68" class="st3" width="18.9" height="18.9"/>
<rect x="151.16" y="56.68" class="st1" width="18.9" height="18.9"/>
<rect x="170.06" y="56.68" class="st2" width="18.9" height="18.9"/>
<rect x="264.54" y="56.68" class="st2" width="18.9" height="18.9"/>
<rect x="113.37" y="75.58" class="st1" width="18.9" height="18.9"/>
<rect x="132.27" y="75.58" class="st3" width="18.9" height="18.9"/>
<rect x="151.16" y="75.58" class="st1" width="18.9" height="18.9"/>
<rect x="170.06" y="75.58" class="st2" width="18.9" height="18.9"/>
<rect x="264.54" y="75.58" class="st2" width="18.9" height="18.9"/>
<rect x="113.37" y="94.47" class="st1" width="18.9" height="18.9"/>
<rect x="132.27" y="94.47" class="st3" width="18.9" height="18.9"/>
<rect x="151.16" y="94.47" class="st1" width="18.9" height="18.9"/>
<rect x="170.06" y="94.47" class="st2" width="18.9" height="18.9"/>
<rect x="188.95" y="94.47" class="st2" width="18.9" height="18.9"/>
<rect x="207.85" y="94.47" class="st2" width="18.9" height="18.9"/>
<rect x="226.74" y="94.47" class="st2" width="18.9" height="18.9"/>
<rect x="245.64" y="94.47" class="st2" width="18.9" height="18.9"/>
<rect x="264.54" y="94.47" class="st2" width="18.9" height="18.9"/>
<rect x="0" y="113.37" class="st1" width="18.9" height="18.9"/>
<rect x="18.89" y="113.37" class="st4" width="18.9" height="18.9"/>
<rect x="37.79" y="113.37" class="st1" width="18.9" height="18.9"/>
<rect x="56.68" y="113.37" class="st1" width="18.9" height="18.9"/>
<rect x="75.58" y="113.37" class="st1" width="18.9" height="18.9"/>
<rect x="94.47" y="113.37" class="st1" width="18.9" height="18.9"/>
<rect x="170.06" y="113.37" class="st1" width="18.9" height="18.9"/>
<rect x="188.95" y="113.37" class="st1" width="18.9" height="18.9"/>
<rect x="207.85" y="113.37" class="st1" width="18.9" height="18.9"/>
<rect x="226.74" y="113.37" class="st1" width="18.9" height="18.9"/>
<rect x="245.64" y="113.37" class="st1" width="18.9" height="18.9"/>
<rect x="264.54" y="113.37" class="st1" width="18.9" height="18.9"/>
<rect x="0" y="132.27" class="st1" width="18.9" height="18.9"/>
<rect x="18.89" y="132.27" class="st4" width="18.9" height="18.9"/>
<rect x="37.79" y="132.27" class="st4" width="18.9" height="18.9"/>
<rect x="56.68" y="132.27" class="st4" width="18.9" height="18.9"/>
<rect x="75.58" y="132.27" class="st4" width="18.9" height="18.9"/>
<rect x="94.47" y="132.27" class="st4" width="18.9" height="18.9"/>
<rect x="170.06" y="132.27" class="st5" width="18.9" height="18.9"/>
<rect x="188.95" y="132.27" class="st5" width="18.9" height="18.9"/>
<rect x="207.85" y="132.27" class="st5" width="18.9" height="18.9"/>
<rect x="226.74" y="132.27" class="st5" width="18.9" height="18.9"/>
<rect x="245.64" y="132.27" class="st5" width="18.9" height="18.9"/>
<rect x="264.54" y="132.27" class="st1" width="18.9" height="18.9"/>
<rect x="0" y="151.16" class="st1" width="18.9" height="18.9"/>
<rect x="18.89" y="151.16" class="st1" width="18.9" height="18.9"/>
<rect x="37.79" y="151.16" class="st1" width="18.9" height="18.9"/>
<rect x="56.68" y="151.16" class="st1" width="18.9" height="18.9"/>
<rect x="75.58" y="151.16" class="st1" width="18.9" height="18.9"/>
<rect x="94.47" y="151.16" class="st1" width="18.9" height="18.9"/>
<rect x="170.06" y="151.16" class="st1" width="18.9" height="18.9"/>
<rect x="188.95" y="151.16" class="st1" width="18.9" height="18.9"/>
<rect x="207.85" y="151.16" class="st1" width="18.9" height="18.9"/>
<rect x="226.74" y="151.16" class="st1" width="18.9" height="18.9"/>
<rect x="245.64" y="151.16" class="st5" width="18.9" height="18.9"/>
<rect x="264.54" y="151.16" class="st1" width="18.9" height="18.9"/>
<rect x="0" y="170.06" class="st2" width="18.9" height="18.9"/>
<rect x="18.89" y="170.06" class="st2" width="18.9" height="18.9"/>
<rect x="37.79" y="170.06" class="st2" width="18.9" height="18.9"/>
<rect x="56.68" y="170.06" class="st2" width="18.9" height="18.9"/>
<rect x="75.58" y="170.06" class="st2" width="18.9" height="18.9"/>
<rect x="94.47" y="170.06" class="st2" width="18.9" height="18.9"/>
<rect x="113.37" y="170.06" class="st1" width="18.9" height="18.9"/>
<rect x="132.27" y="170.06" class="st6" width="18.9" height="18.9"/>
<rect x="151.16" y="170.06" class="st1" width="18.9" height="18.9"/>
<rect x="170.06" y="170.06" class="st2" width="18.9" height="18.9"/>
<rect x="188.95" y="170.06" class="st2" width="18.9" height="18.9"/>
<rect x="207.85" y="170.06" class="st2" width="18.9" height="18.9"/>
<rect x="226.74" y="170.06" class="st2" width="18.9" height="18.9"/>
<rect x="245.64" y="170.06" class="st2" width="18.9" height="18.9"/>
<rect x="264.54" y="170.06" class="st2" width="18.9" height="18.9"/>
<rect x="0" y="188.95" class="st2" width="18.9" height="18.9"/>
<rect x="94.47" y="188.95" class="st2" width="18.9" height="18.9"/>
<rect x="113.37" y="188.95" class="st1" width="18.9" height="18.9"/>
<rect x="132.27" y="188.95" class="st6" width="18.9" height="18.9"/>
<rect x="151.16" y="188.95" class="st1" width="18.9" height="18.9"/>
<rect x="170.06" y="188.95" class="st2" width="18.9" height="18.9"/>
<rect x="264.54" y="188.95" class="st2" width="18.9" height="18.9"/>
<rect x="0" y="207.85" class="st2" width="18.9" height="18.9"/>
<rect x="94.47" y="207.85" class="st2" width="18.9" height="18.9"/>
<rect x="113.37" y="207.85" class="st1" width="18.9" height="18.9"/>
<rect x="132.27" y="207.85" class="st6" width="18.9" height="18.9"/>
<rect x="151.16" y="207.85" class="st1" width="18.9" height="18.9"/>
<rect x="170.06" y="207.85" class="st2" width="18.9" height="18.9"/>
<rect x="264.54" y="207.85" class="st2" width="18.9" height="18.9"/>
<rect x="0" y="226.74" class="st2" width="18.9" height="18.9"/>
<rect x="94.47" y="226.74" class="st2" width="18.9" height="18.9"/>
<rect x="113.37" y="226.74" class="st1" width="18.9" height="18.9"/>
<rect x="132.27" y="226.74" class="st6" width="18.9" height="18.9"/>
<rect x="151.16" y="226.74" class="st1" width="18.9" height="18.9"/>
<rect x="170.06" y="226.74" class="st2" width="18.9" height="18.9"/>
<rect x="264.54" y="226.74" class="st2" width="18.9" height="18.9"/>
<rect x="0" y="245.64" class="st2" width="18.9" height="18.9"/>
<rect x="94.47" y="245.64" class="st2" width="18.9" height="18.9"/>
<rect x="113.37" y="245.64" class="st6" width="18.9" height="18.9"/>
<rect x="132.27" y="245.64" class="st6" width="18.9" height="18.9"/>
<rect x="151.16" y="245.64" class="st1" width="18.9" height="18.9"/>
<rect x="170.06" y="245.64" class="st2" width="18.9" height="18.9"/>
<rect x="264.54" y="245.64" class="st2" width="18.9" height="18.9"/>
<rect x="0" y="264.54" class="st2" width="18.9" height="18.9"/>
<rect x="18.89" y="264.54" class="st2" width="18.9" height="18.9"/>
<rect x="37.79" y="264.54" class="st2" width="18.9" height="18.9"/>
<rect x="56.68" y="264.54" class="st2" width="18.9" height="18.9"/>
<rect x="75.58" y="264.54" class="st2" width="18.9" height="18.9"/>
<rect x="94.47" y="264.54" class="st2" width="18.9" height="18.9"/>
<rect x="113.37" y="264.54" class="st1" width="18.9" height="18.9"/>
<rect x="132.27" y="264.54" class="st1" width="18.9" height="18.9"/>
<rect x="151.16" y="264.54" class="st1" width="18.9" height="18.9"/>
<rect x="170.06" y="264.54" class="st2" width="18.9" height="18.9"/>
<rect x="188.95" y="264.54" class="st2" width="18.9" height="18.9"/>
<rect x="207.85" y="264.54" class="st2" width="18.9" height="18.9"/>
<rect x="226.74" y="264.54" class="st2" width="18.9" height="18.9"/>
<rect x="245.64" y="264.54" class="st2" width="18.9" height="18.9"/>
<rect x="264.54" y="264.54" class="st2" width="18.9" height="18.9"/>
<path class="st7" d="M170.06,0v113.37h113.37V0H170.06z M264.53,94.47h-75.58V18.89h75.58V94.47z"/>
<path class="st8" d="M0,170.06v113.37h113.37V170.06H0z M94.47,264.53H18.89v-75.58h75.58V264.53z"/>
<path class="st9" d="M170.06,170.06v113.37h113.37V170.06H170.06z M264.53,264.53h-75.58v-75.58h75.58V264.53z"/>
<polygon class="st8" points="170.06,170.06 113.37,170.06 141.91,141.71 "/>
<polygon class="st7" points="113.37,113.37 141.91,141.71 170.06,113.37 "/>
<polygon class="st9" points="170.06,113.37 141.91,141.71 170.06,170.06 "/>
<polygon class="st0" points="113.37,113.37 141.91,141.71 113.37,170.06 "/>
<circle class="st0" cx="75.58" cy="37.79" r="11.01"/>
<circle class="st0" cx="37.79" cy="75.58" r="11.01"/>
<circle class="st0" cx="75.58" cy="75.58" r="11.01"/>
<circle class="st0" cx="37.79" cy="37.79" r="11.01"/>
<circle class="st7" cx="245.64" cy="37.79" r="11.01"/>
<circle class="st7" cx="207.85" cy="75.58" r="11.01"/>
<circle class="st7" cx="245.64" cy="75.58" r="11.01"/>
<circle class="st7" cx="207.85" cy="37.79" r="11.01"/>
<circle class="st8" cx="75.58" cy="207.85" r="11.01"/>
<circle class="st8" cx="37.79" cy="245.64" r="11.01"/>
<circle class="st8" cx="75.58" cy="245.64" r="11.01"/>
<circle class="st8" cx="37.79" cy="207.85" r="11.01"/>
<circle class="st9" cx="245.64" cy="207.84" r="11.01"/>
<circle class="st9" cx="207.85" cy="245.63" r="11.01"/>
<circle class="st9" cx="245.64" cy="245.63" r="11.01"/>
<circle class="st9" cx="207.85" cy="207.84" r="11.01"/>
</svg>
