<?xml version="1.0" encoding="utf-8"?>
<!-- Generator: Adobe Illustrator 24.0.1, SVG Export Plug-In . SVG Version: 6.00 Build 0)  -->
<svg version="1.1"
	 id="svg3178" xmlns:cc="http://creativecommons.org/ns#" xmlns:dc="http://purl.org/dc/elements/1.1/" xmlns:inkscape="http://www.inkscape.org/namespaces/inkscape" xmlns:ns1="http://sozi.baierouge.fr" xmlns:rdf="http://www.w3.org/1999/02/22-rdf-syntax-ns#" xmlns:sodipodi="http://sodipodi.sourceforge.net/DTD/sodipodi-0.dtd" xmlns:svg="http://www.w3.org/2000/svg"
	 xmlns="http://www.w3.org/2000/svg" xmlns:xlink="http://www.w3.org/1999/xlink" x="0px" y="0px" viewBox="0 0 744.1 1052.4"
	 style="enable-background:new 0 0 744.1 1052.4;" xml:space="preserve">
<style type="text/css">
	.st0{fill:none;stroke:#000000;stroke-width:2.0111;}
	.st1{fill:url(#path4024-2_1_);}
	.st2{fill:url(#path4026-5_1_);}
	.st3{fill:url(#path4102_1_);}
	.st4{fill:url(#path4028_1_);}
</style>
<sodipodi:namedview  bordercolor="#666666" borderopacity="1.0" id="base" inkscape:current-layer="layer1" inkscape:cx="2541.4124" inkscape:cy="-259.34123" inkscape:document-units="px" inkscape:pageopacity="0.0" inkscape:pageshadow="2" inkscape:window-height="744" inkscape:window-maximized="1" inkscape:window-width="1366" inkscape:window-x="0" inkscape:window-y="24" inkscape:zoom="0.175" pagecolor="#ffffff" showgrid="false">
	</sodipodi:namedview>
<path id="path4024-2-0" inkscape:connector-curvature="0" sodipodi:nodetypes="cscccssscccccscc" class="st0" d="M399.9,192.2
	c-57.4,0-103.8,45.9-103.8,102.5c0,34.3,17.1,64.7,43.4,83.3c-13,78.7-49.3,139-73.2,207.1c-10.1,5-19.5,10.8-28.1,17.2
	c-51,32.3-83.7,82.7-83.7,139.4c0,97.5,97.1,176.7,216.9,176.7s216.9-79.1,216.9-176.7c0-56.7-32.9-107.1-83.9-139.4
	c-0.8-0.6-1.6-1-2.4-1.5c-0.1,0-0.1-0.1-0.2-0.2c-2.2-1.6-4.5-3-6.7-4.5c-15.3-69.3-43.1-132.7-46.7-210.8
	c33-17.2,55.5-51.3,55.5-90.6C503.9,238.1,457.3,192.2,399.9,192.2L399.9,192.2z"/>
<linearGradient id="path4024-2_1_" gradientUnits="userSpaceOnUse" x1="189.0638" y1="548.7557" x2="276.5017" y2="548.7557" gradientTransform="matrix(4.9634 0 0 -4.9457 -785.5552 3472.2244)">
	<stop  offset="0" style="stop-color:#FFFFFF"/>
	<stop  offset="0.5" style="stop-color:#FF0000"/>
	<stop  offset="1" style="stop-color:#5C0000"/>
</linearGradient>
<path id="path4024-2" inkscape:connector-curvature="0" class="st1" d="M241.4,599.1c-52.3,32.2-86.1,83.7-86.1,141.6
	c0,97.5,96.1,176.7,214.5,176.7s214.5-79.1,214.5-176.7c0-57.6-33.6-108.9-85.5-141.1C534,625,556,660.6,556,700.1
	c0,77.1-83.3,139.6-186.1,139.6s-186.1-62.5-186.1-139.6C183.7,660.3,205.9,624.6,241.4,599.1L241.4,599.1z"/>
<linearGradient id="path4026-5_1_" gradientUnits="userSpaceOnUse" x1="106.5449" y1="698.9654" x2="268.9729" y2="668.9654" gradientTransform="matrix(5.0418 0 0 -4.9838 -495.9875 4124.6421)">
	<stop  offset="0" style="stop-color:#FFFFFF"/>
	<stop  offset="0.5" style="stop-color:#FF0000"/>
	<stop  offset="1" style="stop-color:#5C0000"/>
</linearGradient>
<path id="path4026-5" sodipodi:cx="-11.071428" sodipodi:cy="168.43361" sodipodi:rx="37.5" sodipodi:ry="28.214285" sodipodi:type="arc" class="st2" d="
	M558.8,701.1c0,77.7-84.6,140.6-189.1,140.6s-189.1-63-189.1-140.6s84.6-140.6,189.1-140.6S558.8,623.5,558.8,701.1z"/>
<linearGradient id="path4102_1_" gradientUnits="userSpaceOnUse" x1="196.0759" y1="600.4883" x2="258.1119" y2="588.7883" gradientTransform="matrix(4.9634 0 0 -4.9457 -785.5552 3472.2244)">
	<stop  offset="0" style="stop-color:#FFFFFF"/>
	<stop  offset="0.6146" style="stop-color:#FF0000"/>
	<stop  offset="1" style="stop-color:#5C0000"/>
</linearGradient>
<path id="path4102" inkscape:connector-curvature="0" sodipodi:nodetypes="cccccc" class="st3" d="M343.2,308
	c4.1,163.7-98.1,244.3-99.3,395.7c19.5,49.5,71.5,85.4,124.8,85.4c51.5-0.7,126.8-40.8,131.5-71.1c17.2-150.3-74.4-242.8-50.4-404.8
	C380.7,277.4,415,281.9,343.2,308L343.2,308z"/>
<radialGradient id="path4028_1_" cx="182.67" cy="749.9392" r="21.214" gradientTransform="matrix(7.5687 1.263 1.1952 -7.1114 -1905.5615 5378.5527)" gradientUnits="userSpaceOnUse">
	<stop  offset="0" style="stop-color:#FFFFFF"/>
	<stop  offset="0.5" style="stop-color:#FF0000"/>
	<stop  offset="1" style="stop-color:#5C0000"/>
</radialGradient>
<path id="path4028" sodipodi:cx="-5.7142859" sodipodi:cy="88.076469" sodipodi:rx="20.714285" sodipodi:ry="20.714285" sodipodi:type="arc" class="st4" d="
	M501,293.8c0,56.6-46,102.4-102.8,102.4s-102.8-45.9-102.8-102.4s46-102.4,102.8-102.4S501,237.2,501,293.8L501,293.8z"/>
</svg>
