<?xml version="1.0" encoding="utf-8"?>
<!-- Generator: Adobe Illustrator 24.0.1, SVG Export Plug-In . SVG Version: 6.00 Build 0)  -->
<svg version="1.1" id="Layer_1" xmlns="http://www.w3.org/2000/svg" xmlns:xlink="http://www.w3.org/1999/xlink" x="0px" y="0px"
	 viewBox="0 0 680 680" style="enable-background:new 0 0 680 680;" xml:space="preserve">
<style type="text/css">
	.st0{fill:#005C7A;stroke:#000000;stroke-miterlimit:10;}
	.st1{fill:#39B54A;stroke:#000000;stroke-miterlimit:10;}
	.st2{fill:#FF0000;stroke:#000000;stroke-miterlimit:10;}
	.st3{fill:#FFFF00;stroke:#000000;stroke-miterlimit:10;}
	.st4{fill:#0000FF;stroke:#000000;stroke-miterlimit:10;}
	.st5{fill:#0000FF;stroke:#000000;stroke-width:2;stroke-miterlimit:10;}
	.st6{fill:#39B54A;stroke:#000000;stroke-width:2;stroke-miterlimit:10;}
	.st7{fill:#FF0000;stroke:#000000;stroke-width:2;stroke-miterlimit:10;}
	.st8{fill:#FFFFFF;stroke:#000000;stroke-width:2;stroke-miterlimit:10;}
</style>
<rect x="-0.4" class="st0" width="680" height="680"/>
<g>
	
		<image style="overflow:visible;" width="384" height="446" xlink:href="island.png"  transform="matrix(0.4683 0 0 0.4683 70.1946 406.5343)">
	</image>
	<g>
		<rect x="280.1" y="40.1" class="st0" width="40" height="40"/>
		<rect x="320.1" y="40.1" class="st0" width="40" height="40"/>
		<rect x="360" y="40.1" class="st0" width="40" height="40"/>
		<rect x="280.1" y="80.1" class="st0" width="40" height="40"/>
		<rect x="320.1" y="80.1" class="st1" width="40" height="40"/>
		<rect x="360" y="80.1" class="st1" width="40" height="40"/>
		<rect x="280.1" y="120.1" class="st0" width="40" height="40"/>
		<rect x="320.1" y="120.1" class="st1" width="40" height="40"/>
		<rect x="360" y="120.1" class="st0" width="40" height="40"/>
		<rect x="280.1" y="160.1" class="st0" width="40" height="40"/>
		<rect x="320.1" y="160.1" class="st1" width="40" height="40"/>
		<rect x="360" y="160.1" class="st0" width="40" height="40"/>
		<rect x="280.1" y="200.1" class="st0" width="40" height="40"/>
		<rect x="320.1" y="200.1" class="st1" width="40" height="40"/>
		<rect x="360" y="200.1" class="st0" width="40" height="40"/>
		<rect x="280.1" y="240.1" class="st0" width="40" height="40"/>
		<rect x="320.1" y="240.1" class="st1" width="40" height="40"/>
		<rect x="360" y="240.1" class="st0" width="40" height="40"/>
		<rect x="40.1" y="280.1" class="st0" width="40" height="40"/>
		<rect x="80.1" y="280.1" class="st2" width="40" height="40"/>
		<rect x="120.1" y="280.1" class="st0" width="40" height="40"/>
		<rect x="160.1" y="280.1" class="st0" width="40" height="40"/>
		<rect x="200.1" y="280.1" class="st0" width="40" height="40"/>
		<rect x="240.1" y="280.1" class="st0" width="40" height="40"/>
		<rect x="400.1" y="280.1" class="st0" width="40" height="40"/>
		<rect x="440" y="280.1" class="st0" width="40" height="40"/>
		<rect x="479.8" y="280.1" class="st0" width="40" height="40"/>
		<rect x="519.8" y="280.1" class="st0" width="40" height="40"/>
		<rect x="559.8" y="280.1" class="st0" width="40" height="40"/>
		<rect x="599.8" y="280.1" class="st0" width="40" height="40"/>
		<rect x="40.1" y="320.1" class="st0" width="40" height="40"/>
		<rect x="80.1" y="320.1" class="st2" width="40" height="40"/>
		<rect x="120.1" y="320.1" class="st2" width="40" height="40"/>
		<rect x="160.1" y="320.1" class="st2" width="40" height="40"/>
		<rect x="200.1" y="320.1" class="st2" width="40" height="40"/>
		<rect x="240.1" y="320.1" class="st2" width="40" height="40"/>
		<rect x="400.1" y="320.1" class="st3" width="40" height="40"/>
		<rect x="440" y="320.1" class="st3" width="40" height="40"/>
		<rect x="479.8" y="320.1" class="st3" width="40" height="40"/>
		<rect x="519.8" y="320.1" class="st3" width="40" height="40"/>
		<rect x="559.8" y="320.1" class="st3" width="40" height="40"/>
		<rect x="599.8" y="320.1" class="st0" width="40" height="40"/>
		<rect x="40.1" y="360" class="st0" width="40" height="40"/>
		<rect x="80.1" y="360" class="st0" width="40" height="40"/>
		<rect x="120.1" y="360" class="st0" width="40" height="40"/>
		<rect x="160.1" y="360" class="st0" width="40" height="40"/>
		<rect x="200.1" y="360" class="st0" width="40" height="40"/>
		<rect x="240.1" y="360" class="st0" width="40" height="40"/>
		<rect x="400.1" y="360" class="st0" width="40" height="40"/>
		<rect x="440" y="360" class="st0" width="40" height="40"/>
		<rect x="479.8" y="360" class="st0" width="40" height="40"/>
		<rect x="519.8" y="360" class="st0" width="40" height="40"/>
		<rect x="559.8" y="360" class="st3" width="40" height="40"/>
		<rect x="599.8" y="360" class="st0" width="40" height="40"/>
		<rect x="280.1" y="400.1" class="st0" width="40" height="40"/>
		<rect x="320.1" y="400.1" class="st4" width="40" height="40"/>
		<rect x="360" y="400.1" class="st0" width="40" height="40"/>
		<rect x="280.1" y="440" class="st0" width="40" height="40"/>
		<rect x="320.1" y="440" class="st4" width="40" height="40"/>
		<rect x="360" y="440" class="st0" width="40" height="40"/>
		<rect x="280.1" y="479.8" class="st0" width="40" height="40"/>
		<rect x="320.1" y="479.8" class="st4" width="40" height="40"/>
		<rect x="360" y="479.8" class="st0" width="40" height="40"/>
		<rect x="280.1" y="519.8" class="st0" width="40" height="40"/>
		<rect x="320.1" y="519.8" class="st4" width="40" height="40"/>
		<rect x="360" y="519.8" class="st0" width="40" height="40"/>
		<rect x="280.1" y="559.8" class="st4" width="40" height="40"/>
		<rect x="320.1" y="559.8" class="st4" width="40" height="40"/>
		<rect x="360" y="559.8" class="st0" width="40" height="40"/>
		<rect x="280.1" y="599.8" class="st0" width="40" height="40"/>
		<rect x="320.1" y="599.8" class="st0" width="40" height="40"/>
		<rect x="360" y="599.8" class="st0" width="40" height="40"/>
		<polygon class="st5" points="400.1,400.1 280.1,400.1 340.4,339.9 		"/>
		<polygon class="st6" points="280.1,280.1 340.4,339.9 400.1,280.1 		"/>
		<polygon class="st3" points="400.1,280.1 340.4,339.9 400.1,400.1 		"/>
		<polygon class="st7" points="280.1,280.1 340.4,339.9 280.1,400.1 		"/>
		<circle class="st8" cx="339.9" cy="339.9" r="23.3"/>
	</g>
	
		<image style="overflow:visible;" width="384" height="446" xlink:href="island.png"  transform="matrix(0.4683 0 0 0.4683 70.1946 21.2089)">
	</image>
	
		<image style="overflow:visible;" width="384" height="446" xlink:href="island.png"  transform="matrix(0.4683 0 0 0.4683 429.8946 415.3786)">
	</image>
	<path class="st0" d="M559.8,400"/>
	
		<image style="overflow:visible;" width="384" height="446" xlink:href="island.png"  transform="matrix(0.4683 0 0 0.4683 429.8946 21.2089)">
	</image>
</g>
</svg>
