<?xml version="1.0" encoding="utf-8"?>
<!-- Generator: Adobe Illustrator 24.0.1, SVG Export Plug-In . SVG Version: 6.00 Build 0)  -->
<svg version="1.1" id="Layer_1" xmlns="http://www.w3.org/2000/svg" xmlns:xlink="http://www.w3.org/1999/xlink" x="0px" y="0px"
	 viewBox="0 0 700 700" style="enable-background:new 0 0 700 700;" xml:space="preserve">
<style type="text/css">
	.st0{fill:#005C7A;stroke:#000000;stroke-miterlimit:10;}
	.st1{fill:#39B54A;stroke:#000000;stroke-miterlimit:10;}
	.st2{fill:#FF0000;stroke:#000000;stroke-miterlimit:10;}
	.st3{fill:#FFFF00;stroke:#000000;stroke-miterlimit:10;}
	.st4{fill:#0000FF;stroke:#000000;stroke-miterlimit:10;}
	.st5{fill:#FCEE21;stroke:#000000;stroke-miterlimit:10;}
	.st6{fill:#0000FF;stroke:#000000;stroke-width:2;stroke-miterlimit:10;}
	.st7{fill:#39B54A;stroke:#000000;stroke-width:2;stroke-miterlimit:10;}
	.st8{fill:#FF0000;stroke:#000000;stroke-width:2;stroke-miterlimit:10;}
	.st9{fill:#FFFFFF;}
	.st10{fill:#FFFFFF;stroke:#000000;stroke-width:2;stroke-miterlimit:10;}
</style>
<rect x="-0.4" class="st0" width="700" height="700"/>
<rect x="290.1" y="50.1" class="st0" width="40" height="40"/>
<rect x="330.1" y="50.1" class="st0" width="40" height="40"/>
<rect x="370" y="50.1" class="st0" width="40" height="40"/>
<rect x="290.1" y="90.1" class="st0" width="40" height="40"/>
<rect x="330.1" y="90.1" class="st1" width="40" height="40"/>
<rect x="370" y="90.1" class="st1" width="40" height="40"/>
<rect x="290.1" y="130.1" class="st2" width="40" height="40"/>
<rect x="330.1" y="130.1" class="st1" width="40" height="40"/>
<rect x="370" y="130.1" class="st0" width="40" height="40"/>
<rect x="290.1" y="170.1" class="st0" width="40" height="40"/>
<rect x="330.1" y="170.1" class="st1" width="40" height="40"/>
<rect x="370" y="170.1" class="st0" width="40" height="40"/>
<rect x="290.1" y="210.1" class="st0" width="40" height="40"/>
<rect x="330.1" y="210.1" class="st1" width="40" height="40"/>
<rect x="370" y="210.1" class="st0" width="40" height="40"/>
<rect x="290.1" y="250.1" class="st0" width="40" height="40"/>
<rect x="330.1" y="250.1" class="st1" width="40" height="40"/>
<rect x="370" y="250.1" class="st0" width="40" height="40"/>
<rect x="50.1" y="290.1" class="st0" width="40" height="40"/>
<rect x="90.1" y="290.1" class="st2" width="40" height="40"/>
<rect x="130.1" y="290.1" class="st0" width="40" height="40"/>
<rect x="170.1" y="290.1" class="st0" width="40" height="40"/>
<rect x="210.1" y="290.1" class="st0" width="40" height="40"/>
<rect x="250.1" y="290.1" class="st0" width="40" height="40"/>
<rect x="410.1" y="290.1" class="st0" width="40" height="40"/>
<rect x="450" y="290.1" class="st0" width="40" height="40"/>
<rect x="489.8" y="290.1" class="st0" width="40" height="40"/>
<rect x="529.8" y="290.1" class="st1" width="40" height="40"/>
<rect x="569.8" y="290.1" class="st0" width="40" height="40"/>
<rect x="609.8" y="290.1" class="st0" width="40" height="40"/>
<rect x="50.1" y="330.1" class="st0" width="40" height="40"/>
<rect x="90.1" y="330.1" class="st2" width="40" height="40"/>
<rect x="130.1" y="330.1" class="st2" width="40" height="40"/>
<rect x="170.1" y="330.1" class="st2" width="40" height="40"/>
<rect x="210.1" y="330.1" class="st2" width="40" height="40"/>
<rect x="250.1" y="330.1" class="st2" width="40" height="40"/>
<rect x="410.1" y="330.1" class="st3" width="40" height="40"/>
<rect x="450" y="330.1" class="st3" width="40" height="40"/>
<rect x="489.8" y="330.1" class="st3" width="40" height="40"/>
<rect x="529.8" y="330.1" class="st3" width="40" height="40"/>
<rect x="569.8" y="330.1" class="st3" width="40" height="40"/>
<rect x="609.8" y="330.1" class="st0" width="40" height="40"/>
<rect x="50.1" y="370" class="st0" width="40" height="40"/>
<rect x="90.1" y="370" class="st0" width="40" height="40"/>
<rect x="130.1" y="370" class="st4" width="40" height="40"/>
<rect x="170.1" y="370" class="st0" width="40" height="40"/>
<rect x="210.1" y="370" class="st0" width="40" height="40"/>
<rect x="250.1" y="370" class="st0" width="40" height="40"/>
<rect x="410.1" y="370" class="st0" width="40" height="40"/>
<rect x="450" y="370" class="st0" width="40" height="40"/>
<rect x="489.8" y="370" class="st0" width="40" height="40"/>
<rect x="529.8" y="370" class="st0" width="40" height="40"/>
<rect x="569.8" y="370" class="st3" width="40" height="40"/>
<rect x="609.8" y="370" class="st0" width="40" height="40"/>
<rect x="290.1" y="410.1" class="st0" width="40" height="40"/>
<rect x="330.1" y="410.1" class="st4" width="40" height="40"/>
<rect x="370" y="410.1" class="st0" width="40" height="40"/>
<rect x="290.1" y="450" class="st0" width="40" height="40"/>
<rect x="330.1" y="450" class="st4" width="40" height="40"/>
<rect x="370" y="450" class="st0" width="40" height="40"/>
<rect x="290.1" y="489.8" class="st0" width="40" height="40"/>
<rect x="330.1" y="489.8" class="st4" width="40" height="40"/>
<rect x="370" y="489.8" class="st0" width="40" height="40"/>
<rect x="290.1" y="529.8" class="st0" width="40" height="40"/>
<rect x="330.1" y="529.8" class="st4" width="40" height="40"/>
<rect x="370" y="529.8" class="st5" width="40" height="40"/>
<rect x="290.1" y="569.8" class="st4" width="40" height="40"/>
<rect x="330.1" y="569.8" class="st4" width="40" height="40"/>
<rect x="370" y="569.8" class="st0" width="40" height="40"/>
<rect x="290.1" y="609.8" class="st0" width="40" height="40"/>
<rect x="330.1" y="609.8" class="st0" width="40" height="40"/>
<rect x="370" y="609.8" class="st0" width="40" height="40"/>
<polygon class="st6" points="410.1,410.1 290.1,410.1 350.4,349.9 "/>
<polygon class="st7" points="290.1,290.1 350.4,349.9 410.1,290.1 "/>
<polygon class="st3" points="410.1,290.1 350.4,349.9 410.1,410.1 "/>
<polygon class="st8" points="290.1,290.1 350.4,349.9 290.1,410.1 "/>
<polygon class="st9" points="136.4,376.4 147.8,380.2 157.4,373 157.1,385.1 166.9,391.8 155.4,395.4 152.1,406.9 145.1,397.1 
	133.2,397.1 140.2,387.6 "/>
<polygon class="st9" points="376.4,536.4 387.6,540.2 397.1,533 397.1,545.1 406.9,551.8 395.4,555.4 391.8,566.9 385.1,557.1 
	373,557.1 380.2,547.6 "/>
<polygon class="st9" points="296.4,136.4 307.6,140.2 317.4,133.2 317.1,145.1 326.9,152.1 315.4,155.4 311.8,166.9 305.1,157.1 
	293.2,157.4 300.2,147.8 "/>
<polygon class="st9" points="536.4,296.4 547.6,300.2 557.1,293.2 557.1,305.1 566.9,311.8 555.4,315.4 551.8,326.9 545.1,317.1 
	533,317.4 540.2,307.6 "/>
<circle class="st10" cx="349.9" cy="349.9" r="23.3"/>
<image style="overflow:visible;" width="384" height="446" xlink:href="island.png"  transform="matrix(0.5163 0 0 0.5163 70.9736 50.1)">
</image>
<image style="overflow:visible;" width="384" height="446" xlink:href="island.png"  transform="matrix(0.5163 0 0 0.5163 433.8736 50.1)">
</image>
<image style="overflow:visible;" width="384" height="446" xlink:href="island.png"  transform="matrix(0.5163 0 0 0.5163 430.6736 419.8377)">
</image>
<image style="overflow:visible;" width="384" height="446" xlink:href="island.png"  transform="matrix(0.5163 0 0 0.5163 67.7736 419.8377)">
</image>
</svg>
