<?xml version="1.0" encoding="utf-8"?>
<!-- Generator: Adobe Illustrator 24.0.1, SVG Export Plug-In . SVG Version: 6.00 Build 0)  -->
<svg version="1.1"
	 id="svg3178" xmlns:cc="http://creativecommons.org/ns#" xmlns:dc="http://purl.org/dc/elements/1.1/" xmlns:inkscape="http://www.inkscape.org/namespaces/inkscape" xmlns:ns1="http://sozi.baierouge.fr" xmlns:rdf="http://www.w3.org/1999/02/22-rdf-syntax-ns#" xmlns:sodipodi="http://sodipodi.sourceforge.net/DTD/sodipodi-0.dtd" xmlns:svg="http://www.w3.org/2000/svg"
	 xmlns="http://www.w3.org/2000/svg" xmlns:xlink="http://www.w3.org/1999/xlink" x="0px" y="0px" viewBox="0 0 28 44"
	 style="enable-background:new 0 0 28 44;" xml:space="preserve">
<style type="text/css">
	.st0{fill:none;stroke:#000000;stroke-width:2.0111;}
	.st1{fill:url(#path4024-2_1_);}
	.st2{fill:url(#path4026-5_1_);}
	.st3{fill:url(#path4102_1_);}
	.st4{fill:url(#path4028_1_);}
</style>
<sodipodi:namedview  bordercolor="#666666" borderopacity="1.0" id="base" inkscape:current-layer="layer1" inkscape:cx="2541.4124" inkscape:cy="-259.34123" inkscape:document-units="px" inkscape:pageopacity="0.0" inkscape:pageshadow="2" inkscape:window-height="744" inkscape:window-maximized="1" inkscape:window-width="1366" inkscape:window-x="0" inkscape:window-y="24" inkscape:zoom="0.175" pagecolor="#ffffff" showgrid="false">
	</sodipodi:namedview>
<g>
	<path id="path4024-2-0" inkscape:connector-curvature="0" sodipodi:nodetypes="cscccssscccccscc" class="st0" d="M15.3,3.4
		c-2.7,0-4.9,2.3-4.9,5.2c0,1.8,0.8,3.3,2,4.3c-0.6,4-2.3,7.1-3.5,10.6c-0.5,0.3-0.9,0.6-1.3,0.9c-2.4,1.7-3.9,4.2-3.9,7.1
		c0,5,4.6,9,10.2,9s10.2-4,10.2-9c0-2.9-1.6-5.5-4-7.1c0,0-0.1-0.1-0.1-0.1c0,0,0,0,0,0c-0.1-0.1-0.2-0.2-0.3-0.2
		c-0.7-3.5-2-6.8-2.2-10.8c1.6-0.9,2.6-2.6,2.6-4.6C20.3,5.8,18.1,3.4,15.3,3.4L15.3,3.4z"/>
	
		<linearGradient id="path4024-2_1_" gradientUnits="userSpaceOnUse" x1="107.8668" y1="281.3964" x2="111.9928" y2="281.3964" gradientTransform="matrix(4.9634 0 0 -4.9457 -531.6995 1424.1034)">
		<stop  offset="0" style="stop-color:#FFFFFF"/>
		<stop  offset="0.5" style="stop-color:#FCEE21"/>
		<stop  offset="1" style="stop-color:#5C0000"/>
	</linearGradient>
	<path id="path4024-2" inkscape:connector-curvature="0" class="st1" d="M7.9,24.3c-2.5,1.6-4.1,4.3-4.1,7.2c0,5,4.5,9,10.1,9
		s10.1-4,10.1-9c0-2.9-1.6-5.6-4-7.2c1.7,1.3,2.7,3.1,2.7,5.1c0,3.9-3.9,7.1-8.8,7.1s-8.8-3.2-8.8-7.1C5.1,27.4,6.2,25.6,7.9,24.3
		L7.9,24.3z"/>
	
		<linearGradient id="path4026-5_1_" gradientUnits="userSpaceOnUse" x1="46.7101" y1="408.3406" x2="54.3874" y2="406.9226" gradientTransform="matrix(5.0418 0 0 -4.9838 -237.1103 2061.731)">
		<stop  offset="0" style="stop-color:#FFFFFF"/>
		<stop  offset="0.5" style="stop-color:#FCEE21"/>
		<stop  offset="1" style="stop-color:#5C0000"/>
	</linearGradient>
	
		<path id="path4026-5" sodipodi:cx="-11.071428" sodipodi:cy="168.43361" sodipodi:rx="37.5" sodipodi:ry="28.214285" sodipodi:type="arc" class="st2" d="
		M22.8,29.5c0,4-4,7.2-8.9,7.2S5,33.4,5,29.5s4-7.2,8.9-7.2S22.8,25.5,22.8,29.5z"/>
	
		<linearGradient id="path4102_1_" gradientUnits="userSpaceOnUse" x1="108.2089" y1="284.0118" x2="111.1499" y2="283.4572" gradientTransform="matrix(4.9634 0 0 -4.9457 -531.6995 1424.1034)">
		<stop  offset="0" style="stop-color:#FFFFFF"/>
		<stop  offset="0.6146" style="stop-color:#FCEE21"/>
		<stop  offset="1" style="stop-color:#5C0000"/>
	</linearGradient>
	<path id="path4102" inkscape:connector-curvature="0" sodipodi:nodetypes="cccccc" class="st3" d="M12.7,9.4
		C12.9,17.7,8,21.9,8,29.6c0.9,2.5,3.4,4.4,5.9,4.4c2.4,0,6-2.1,6.2-3.6c0.8-7.7-3.5-12.4-2.4-20.7C14.4,7.8,16.1,8,12.7,9.4
		L12.7,9.4z"/>
	
		<radialGradient id="path4028_1_" cx="62.3645" cy="483.5238" r="21.214" gradientTransform="matrix(0.3571 6.460063e-02 5.639868e-02 -0.3637 -35.452 179.5893)" gradientUnits="userSpaceOnUse">
		<stop  offset="0" style="stop-color:#FFFFFF"/>
		<stop  offset="0.4882" style="stop-color:#FCEE21"/>
		<stop  offset="1" style="stop-color:#5C0000"/>
	</radialGradient>
	
		<path id="path4028" sodipodi:cx="-5.7142859" sodipodi:cy="88.076469" sodipodi:rx="20.714285" sodipodi:ry="20.714285" sodipodi:type="arc" class="st4" d="
		M20.1,8.6c0,2.9-2.2,5.2-4.9,5.2s-4.9-2.3-4.9-5.2s2.2-5.2,4.9-5.2S20.1,5.8,20.1,8.6L20.1,8.6z"/>
</g>
</svg>
